<?xml version="1.0" standalone="no"?>
<!DOCTYPE svg PUBLIC "-//W3C//DTD SVG 20010904//EN"
 "http://www.w3.org/TR/2001/REC-SVG-20010904/DTD/svg10.dtd">
<svg version="1.0" xmlns="http://www.w3.org/2000/svg"
 width="16.000000pt" height="16.000000pt" viewBox="0 0 16.000000 16.000000"
 preserveAspectRatio="xMidYMid meet">
<metadata>
Created by potrace 1.11, written by Peter Selinger 2001-2013
</metadata>
<g transform="translate(0.000000,16.000000) scale(0.006154,-0.006154)"
fill="#000000" stroke="none">
<path d="M1266 1561 c-13 -21 3 -46 30 -48 16 0 36 -2 44 -2 13 -1 15 -22 13
-131 l-1 -130 34 0 34 0 0 130 0 130 28 1 c54 2 57 4 57 29 l0 25 -117 2 c-65
1 -120 -2 -122 -6z"/>
<path d="M1801 1544 c-26 -21 -31 -33 -31 -68 0 -51 17 -69 83 -92 25 -8 48
-22 51 -30 16 -41 -44 -68 -88 -38 -21 13 -29 14 -41 4 -23 -19 -18 -38 16
-56 60 -31 149 -10 165 38 23 73 2 114 -75 141 -37 13 -51 23 -51 37 0 30 31
41 74 28 31 -10 39 -9 47 3 12 20 7 32 -22 46 -41 21 -94 16 -128 -13z"/>
<path d="M1170 1395 l0 -145 25 0 25 0 0 145 0 145 -25 0 -25 0 0 -145z"/>
<path d="M183 1510 c-104 -63 -70 -251 47 -260 49 -4 68 0 94 21 24 19 26 23
13 36 -11 12 -19 12 -35 4 -61 -33 -122 7 -122 79 0 72 63 113 120 78 16 -11
22 -9 34 7 13 18 12 21 -12 37 -36 24 -99 23 -139 -2z"/>
<path d="M1563 1470 c-51 -20 -75 -106 -47 -165 29 -62 127 -77 177 -27 28 29
35 106 12 148 -25 47 -87 66 -142 44z m87 -59 c32 -60 -17 -143 -64 -108 -22
17 -28 80 -10 106 19 26 60 27 74 2z"/>
<path d="M2061 1455 c-60 -52 -48 -164 22 -196 38 -18 100 -10 125 14 25 26 2
43 -41 30 -36 -11 -72 0 -82 25 -8 21 -4 23 61 24 68 1 84 10 77 41 -18 85
-98 115 -162 62z m104 -42 c8 -22 3 -25 -46 -21 l-44 3 22 22 c24 24 58 21 68
-4z"/>
<path d="M2341 1467 c-32 -19 -50 -54 -51 -100 0 -74 40 -116 111 -117 58 0
101 28 75 49 -12 10 -23 11 -47 2 -32 -11 -67 -1 -70 19 -5 31 -2 33 61 34
l65 1 3 31 c6 66 -85 116 -147 81z m87 -50 c23 -18 12 -27 -33 -27 -49 0 -53
4 -29 31 16 17 36 16 62 -4z"/>
<path d="M395 1427 c-20 -16 -28 -35 -32 -68 -4 -38 -1 -50 22 -77 23 -27 33
-32 71 -32 67 0 102 40 95 110 -4 43 -14 61 -41 75 -42 22 -85 19 -115 -8z
m97 -42 c7 -16 8 -35 2 -57 -19 -66 -88 -38 -77 31 8 53 55 70 75 26z"/>
<path d="M580 1349 l0 -100 27 3 c26 3 27 5 27 70 1 70 12 92 42 86 16 -3 19
-14 22 -81 l3 -78 27 3 c27 3 27 3 25 81 -1 59 -6 83 -19 98 -19 21 -55 25
-84 9 -13 -7 -21 -7 -25 0 -3 5 -15 10 -26 10 -18 0 -19 -8 -19 -101z"/>
<path d="M800 1430 c-36 -36 -20 -82 35 -100 35 -11 47 -34 23 -43 -7 -2 -24
0 -36 5 -27 9 -42 3 -42 -17 0 -17 22 -25 69 -25 79 0 98 79 27 115 -47 24
-47 40 -1 39 39 -1 54 20 25 36 -31 16 -78 12 -100 -10z"/>
<path d="M955 1378 c2 -105 2 -106 33 -122 23 -12 32 -12 60 -1 17 8 32 10 32
5 0 -6 10 -10 23 -10 21 0 22 3 21 97 l0 98 -27 3 -27 3 0 -75 c0 -73 -1 -76
-25 -82 -14 -4 -28 -4 -32 -1 -3 3 -6 39 -7 79 -1 70 -2 73 -26 76 -26 3 -26
3 -25 -70z"/>
<path d="M120 1090 c0 -37 4 -60 11 -60 7 0 10 14 7 35 -5 41 4 45 20 10 11
-23 32 -35 32 -17 0 4 8 17 18 30 18 23 18 23 14 -18 -3 -25 0 -40 7 -40 7 0
11 23 11 60 0 68 -12 77 -37 25 -9 -19 -19 -35 -23 -35 -3 0 -14 16 -24 35
-11 19 -23 35 -28 35 -4 0 -8 -27 -8 -60z"/>
<path d="M290 1094 c-20 -54 -19 -88 1 -51 12 21 59 23 59 2 0 -8 5 -15 10
-15 6 0 10 4 10 9 0 17 -43 111 -51 111 -4 0 -17 -25 -29 -56z m40 -2 c0 -10
-6 -19 -14 -19 -8 0 -11 8 -8 19 2 10 8 18 13 18 5 0 9 -8 9 -18z"/>
<path d="M408 1144 c-12 -11 -10 -114 2 -114 6 0 10 11 10 25 0 32 5 31 35 -2
29 -35 43 -26 15 10 -24 31 -24 29 0 57 11 13 17 26 14 29 -3 3 -16 -6 -29
-21 -30 -34 -33 -35 -37 -2 -2 14 -6 22 -10 18z"/>
<path d="M520 1090 l0 -60 35 0 c19 0 35 5 35 10 0 6 -11 10 -25 10 -16 0 -25
6 -25 15 0 8 9 15 20 15 11 0 20 5 20 10 0 6 -9 10 -20 10 -11 0 -20 7 -20 15
0 9 9 15 25 15 14 0 25 5 25 10 0 6 -16 10 -35 10 l-35 0 0 -60z"/>
<path d="M679 1114 c12 -19 21 -46 21 -60 0 -13 5 -24 10 -24 6 0 10 11 10 24
0 14 9 41 21 60 12 20 16 36 10 36 -6 0 -17 -12 -24 -27 l-14 -26 -18 26 c-26
40 -40 32 -16 -9z"/>
<path d="M790 1128 c-11 -12 -20 -30 -20 -40 0 -26 36 -58 64 -58 47 0 71 65
36 100 -26 26 -54 25 -80 -2z m70 -24 c7 -19 7 -31 -1 -40 -29 -36 -81 5 -59
46 15 29 48 25 60 -6z"/>
<path d="M920 1102 c0 -52 12 -72 45 -72 33 0 45 20 45 72 0 62 -18 63 -22 1
-3 -40 -6 -48 -23 -48 -17 0 -20 8 -23 48 -4 62 -22 61 -22 -1z"/>
<path d="M1050 1090 c0 -33 4 -60 10 -60 6 0 10 12 10 28 l1 27 24 -30 c13
-16 27 -26 31 -22 4 3 1 13 -6 22 -7 9 -9 22 -4 32 18 41 8 58 -35 61 l-31 2
0 -60z m53 34 c9 -10 -4 -34 -19 -34 -8 0 -14 9 -14 20 0 19 19 27 33 14z"/>
<path d="M1172 1138 c-19 -19 -14 -36 13 -54 32 -21 32 -38 0 -32 -34 7 -43
-10 -10 -18 27 -7 55 9 55 32 0 7 -11 21 -25 30 -30 20 -33 38 -5 31 24 -6 36
8 14 17 -22 8 -28 8 -42 -6z"/>
<path d="M1267 1143 c-2 -5 -4 -32 -5 -60 l0 -53 34 0 c19 0 34 5 34 10 0 6
-11 10 -25 10 -16 0 -25 6 -25 15 0 8 9 15 19 15 11 0 23 5 26 10 4 6 -5 10
-19 10 -16 0 -26 6 -26 15 0 9 9 15 25 15 14 0 25 5 25 10 0 12 -57 14 -63 3z"/>
<path d="M1374 1132 c-5 -12 -8 -40 -6 -62 4 -37 7 -40 33 -40 16 0 29 5 29
10 0 6 -9 10 -19 10 -17 0 -20 8 -23 53 -3 44 -5 49 -14 29z"/>
<path d="M1467 1143 c-10 -17 -4 -114 7 -110 6 2 11 12 11 22 0 12 10 22 25
26 14 4 22 8 18 9 -14 4 -28 7 -38 9 -23 3 -9 31 15 31 14 0 25 5 25 10 0 12
-57 14 -63 3z"/>
<path d="M1621 1094 c-20 -54 -20 -88 0 -51 13 22 48 22 65 0 21 -28 17 1 -7
58 -12 27 -25 49 -29 49 -4 0 -17 -25 -29 -56z m42 2 c3 -8 -1 -17 -9 -20 -9
-4 -14 1 -14 14 0 23 15 27 23 6z"/>
<path d="M1780 1090 c0 -33 4 -60 10 -60 6 0 10 8 10 18 0 10 12 22 30 29 52
20 31 73 -29 73 -19 0 -21 -6 -21 -60z m55 20 c0 -8 -8 -16 -17 -18 -13 -2
-18 3 -18 18 0 15 5 20 18 18 9 -2 17 -10 17 -18z"/>
<path d="M1890 1090 c0 -33 4 -60 10 -60 6 0 10 27 10 60 0 33 -4 60 -10 60
-6 0 -10 -27 -10 -60z"/>
<path d="M1968 1138 c-57 -46 1 -138 62 -98 16 10 8 13 -28 10 -15 -1 -25 6
-31 22 -12 31 5 60 32 58 35 -3 43 0 27 10 -21 13 -43 12 -62 -2z"/>
<path d="M2060 1140 c0 -5 7 -10 15 -10 11 0 15 -12 15 -50 0 -61 20 -68 21
-7 1 23 1 45 0 50 0 4 5 7 13 7 8 0 18 5 21 10 4 6 -12 10 -39 10 -25 0 -46
-4 -46 -10z"/>
<path d="M2175 1113 c1 -60 13 -83 42 -83 35 0 52 26 53 80 0 52 -20 43 -24
-11 -2 -19 -4 -37 -5 -41 -2 -12 -41 -10 -42 2 -1 6 -3 24 -4 40 -4 48 -5 50
-13 50 -4 0 -8 -17 -7 -37z"/>
<path d="M2309 1128 c-2 -27 -2 -80 0 -90 1 -5 6 -8 12 -8 6 0 9 6 6 13 -3 8
-2 19 2 26 6 9 13 5 25 -13 9 -14 21 -26 27 -26 7 0 5 10 -5 24 -10 15 -12 27
-6 31 16 10 12 52 -6 59 -33 13 -54 6 -55 -16z m51 -12 c0 -21 -21 -31 -30
-15 -5 7 -6 17 -4 21 9 14 34 9 34 -6z"/>
<path d="M2420 1090 l0 -60 35 0 c19 0 35 5 35 10 0 6 -11 10 -25 10 -16 0
-25 6 -25 15 0 8 9 15 20 15 11 0 20 5 20 10 0 6 -3 9 -7 9 -21 -3 -33 2 -33
16 0 9 9 15 25 15 14 0 25 5 25 10 0 6 -16 10 -35 10 l-35 0 0 -60z"/>
</g>
</svg>
